<?xml version="1.0" encoding="iso-8859-1"?>
<!-- Generator: Adobe Illustrator 16.0.0, SVG Export Plug-In . SVG Version: 6.00 Build 0)  -->
<!DOCTYPE svg PUBLIC "-//W3C//DTD SVG 1.1//EN" "http://www.w3.org/Graphics/SVG/1.1/DTD/svg11.dtd">
<svg version="1.1" xmlns="http://www.w3.org/2000/svg" xmlns:xlink="http://www.w3.org/1999/xlink" x="0px" y="0px" width="430px"
	 height="224px" viewBox="0 0 430 224" style="enable-background:new 0 0 430 224;" xml:space="preserve">
<g id="_x31_" style="display:none;">
	
		<path style="display:inline;fill-rule:evenodd;clip-rule:evenodd;fill:#FED23B;stroke:#000000;stroke-width:5.6693;stroke-miterlimit:22.9256;" d="
		M425.277,111.662c1.318-20.84-1.083-43.536-13.738-63.177c-10.687-16.589-31.822-28.45-54.045-28.299
		c-18.098,0.123-36.303-0.337-55.279,1.976c-2.598-10.951-7.801-19.996-16.236-16.626c-2.168,0.867,3.6,18.951,6.353,20.613
		c0.945,0.57,0.16,2.371,0.671,3.005c-30.408-4.016-64.368-6.209-96.535-5.388c-6.576-5.167-17.21-3.744-22.58,0.619
		c-13.217,0.465-24.625,0.681-38.004,2.217c-5.889-3.536-16.871-4.638-27.148-5.099c-18.427,0.22-36.688-0.549-55.28,2.308
		C37.66,26.65,26.07,36.55,17.098,52.599C7.29,70.135,5.416,91.714,5.416,111.662c-0.001,19.949,1.874,41.525,11.682,59.063
		c8.973,16.048,20.564,25.948,36.357,28.789c18.593,2.856,36.854,2.086,55.28,2.306c10.277-0.461,21.261-1.562,27.148-5.098
		c13.382,1.534,24.787,1.752,38.004,2.217c5.369,4.363,16.003,5.785,22.58,0.618c32.166,0.822,66.126-1.373,96.535-5.387
		c-0.511,0.633,0.274,2.435-0.672,3.005c-2.753,1.662-8.521,19.746-6.352,20.613c8.437,3.371,13.639-5.677,16.236-16.626
		c18.977,2.312,37.182,1.852,55.281,1.975c22.221,0.15,43.357-11.709,54.043-28.298
		C424.194,155.196,426.596,132.501,425.277,111.662z"/>
	<path style="display:inline;fill-rule:evenodd;clip-rule:evenodd;fill:#FED23B;" d="M425.277,111.662
		c1.318-20.84-1.083-43.536-13.738-63.178c-10.687-16.588-31.822-28.449-54.045-28.298c-18.099,0.123-36.303-0.337-55.279,1.975
		c-2.598-10.95-7.801-19.996-16.236-16.625c-2.169,0.866,3.599,18.951,6.352,20.612c0.946,0.57,0.161,2.372,0.672,3.005
		c-30.408-4.015-64.369-6.208-96.535-5.387c-6.576-5.167-17.21-3.745-22.58,0.618c-13.217,0.466-24.625,0.682-38.004,2.218
		c-5.889-3.537-16.871-4.638-27.148-5.099c-18.427,0.22-36.688-0.55-55.28,2.307C37.66,26.649,26.07,36.55,17.098,52.598
		C7.29,70.135,5.416,91.713,5.416,111.662c-0.001,19.949,1.874,41.525,11.682,59.063c8.973,16.048,20.564,25.948,36.357,28.789
		c18.593,2.856,36.854,2.086,55.28,2.306c10.277-0.461,21.261-1.562,27.148-5.098c13.382,1.534,24.787,1.752,38.004,2.217
		c5.369,4.363,16.003,5.785,22.58,0.618c32.166,0.822,66.126-1.373,96.535-5.388c-0.511,0.633,0.274,2.435-0.672,3.006
		c-2.753,1.662-8.521,19.745-6.352,20.613c8.436,3.371,13.637-5.677,16.236-16.626c18.977,2.312,37.181,1.852,55.279,1.976
		c22.223,0.15,43.358-11.71,54.045-28.299C424.194,155.196,426.596,132.501,425.277,111.662z"/>
	<g style="display:inline;">
		<path style="fill-rule:evenodd;clip-rule:evenodd;" d="M92.094,34.957c76.754-10.44,144.761-12.968,219.803-3.619
			C240.975,44.268,167.404,43.964,92.094,34.957z"/>
		<path style="fill-rule:evenodd;clip-rule:evenodd;" d="M202.909,60.623l40.044,0.823c4.393,0.091,7.905,3.596,7.988,7.987
			c0.259,13.846,1.036,27.71,0.777,41.532c0.259,13.822-0.518,27.687-0.777,41.532c-0.083,4.392-3.595,7.897-7.987,7.987
			l-40.045,0.824c-4.393,0.09-7.987-3.594-7.987-7.988c0-28.236,0-56.474,0-84.71C194.922,64.217,198.517,60.533,202.909,60.623z"/>
		<path style="fill-rule:evenodd;clip-rule:evenodd;" d="M311.897,191.311c-76.753-10.441-144.759-12.969-219.804-3.621
			C163.017,200.621,236.587,200.317,311.897,191.311z"/>
		<path style="fill-rule:evenodd;clip-rule:evenodd;" d="M43.726,111.296c0.025-20.668,4.467-40.864,16.78-60.215
			c21.388-0.33,42.775-0.658,64.164-0.988c-4.832,17.398-6.364,38.956-7.239,61.203c0.875,22.247,2.407,43.805,7.241,61.202
			c-21.391-0.329-42.778-0.658-64.166-0.987C48.192,152.16,43.751,131.965,43.726,111.296z"/>
		
			<path style="fill-rule:evenodd;clip-rule:evenodd;fill:#282829;stroke:#414042;stroke-width:0.216;stroke-miterlimit:22.9256;" d="
			M67.552,50.973l57.118-0.88c-4.832,17.398-6.364,38.956-7.239,61.203c0.875,22.247,2.407,43.805,7.241,61.202l-53.424-0.822
			c-4.712-20.136-7.451-44.149-7.451-69.936C63.797,83.711,65.137,66.549,67.552,50.973z"/>
		<path style="fill-rule:evenodd;clip-rule:evenodd;" d="M274.798,111.296c-0.159-22.931-2.415-45.237-9.625-67.125
			c20.401-2.961,40.802-5.922,61.202-8.883c22.443,13.605,32.623,39.993,33.562,76.009c-0.939,36.017-11.119,62.404-33.562,76.01
			c-20.4-2.961-40.801-5.922-61.202-8.885C272.383,156.534,274.638,134.228,274.798,111.296z"/>
		
			<path style="fill-rule:evenodd;clip-rule:evenodd;fill:#282829;stroke:#414042;stroke-width:0.216;stroke-miterlimit:22.9256;" d="
			M274.798,111.296c-0.159-22.931-2.415-45.237-9.625-67.125l52.605-7.635c3.737,18.543,5.872,39.91,5.872,62.66
			c-0.001,33.056-4.5,63.198-11.892,85.989l-46.586-6.763C272.383,156.534,274.638,134.228,274.798,111.296z"/>
		
			<path style="fill-rule:evenodd;clip-rule:evenodd;fill:#414042;stroke:#414042;stroke-width:0.216;stroke-miterlimit:22.9256;" d="
			M385.773,31.321c2.23-0.868,8.514,4.01,14.033,10.89c5.52,6.881,8.186,13.162,5.956,14.028
			c-2.229,0.866-8.515-4.011-14.033-10.891C386.211,38.469,383.543,32.187,385.773,31.321L385.773,31.321z M405.763,166.354
			c-2.23-0.867-8.515,4.01-14.033,10.89c-5.519,6.88-8.187,13.162-5.956,14.028c2.23,0.866,8.514-4.011,14.033-10.891
			C405.326,173.501,407.992,167.219,405.763,166.354z"/>
		
			<path style="fill-rule:evenodd;clip-rule:evenodd;fill:#ED1C24;stroke:#ED1C24;stroke-width:0.216;stroke-miterlimit:22.9256;" d="
			M42.016,35.159c3.27,0,2.44,5.452-1.854,12.175c-4.294,6.722-10.429,12.174-13.698,12.174c-3.271,0-2.44-5.452,1.853-12.174
			C32.609,40.611,38.744,35.159,42.016,35.159L42.016,35.159z M26.463,163.084c-3.271,0-2.44,5.452,1.853,12.174
			c4.294,6.724,10.429,12.176,13.7,12.176c3.27,0,2.44-5.453-1.853-12.176C35.867,168.536,29.732,163.084,26.463,163.084z"/>
	</g>
</g>
<g id="Layer_2" style="display:none;">
	
		<path style="display:inline;fill-rule:evenodd;clip-rule:evenodd;fill:#FED23B;stroke:#000000;stroke-width:5.6693;stroke-miterlimit:22.9256;" d="
		M425.277,111.662c1.318-20.84-1.083-43.536-13.738-63.177c-10.687-16.589-31.822-28.45-54.045-28.299
		c-18.098,0.123-36.303-0.337-55.279,1.976c-2.598-10.951-7.801-19.996-16.236-16.626c-2.168,0.867,3.6,18.951,6.353,20.613
		c0.945,0.57,0.16,2.371,0.671,3.005c-30.408-4.016-64.368-6.209-96.535-5.388c-6.576-5.167-17.21-3.744-22.58,0.619
		c-13.217,0.465-24.625,0.681-38.004,2.217c-5.889-3.536-16.871-4.638-27.148-5.099c-18.427,0.22-36.688-0.549-55.28,2.308
		C37.66,26.65,26.07,36.55,17.098,52.599C7.29,70.135,5.416,91.714,5.416,111.662c-0.001,19.949,1.874,41.525,11.682,59.063
		c8.973,16.048,20.564,25.948,36.357,28.789c18.593,2.856,36.854,2.086,55.28,2.306c10.277-0.461,21.261-1.562,27.148-5.098
		c13.382,1.534,24.787,1.752,38.004,2.217c5.369,4.363,16.003,5.785,22.58,0.618c32.166,0.822,66.126-1.373,96.535-5.387
		c-0.511,0.633,0.274,2.435-0.672,3.005c-2.753,1.662-8.521,19.746-6.352,20.613c8.437,3.371,13.639-5.677,16.236-16.626
		c18.977,2.312,37.182,1.852,55.281,1.975c22.221,0.15,43.357-11.709,54.043-28.298
		C424.194,155.196,426.596,132.501,425.277,111.662z"/>
	<g style="display:inline;">
		<defs>
			<path id="SVGID_1_" d="M425.277,111.662c1.318-20.84-1.083-43.536-13.738-63.178c-10.687-16.588-31.822-28.449-54.045-28.298
				c-18.099,0.123-36.303-0.337-55.279,1.975c-2.598-10.95-7.801-19.996-16.236-16.625c-2.169,0.866,3.599,18.951,6.352,20.612
				c0.946,0.57,0.161,2.372,0.672,3.005c-30.408-4.015-64.369-6.208-96.535-5.387c-6.576-5.167-17.21-3.745-22.58,0.618
				c-13.217,0.466-24.625,0.682-38.004,2.218c-5.889-3.537-16.871-4.638-27.148-5.099c-18.427,0.22-36.688-0.55-55.28,2.307
				C37.66,26.649,26.07,36.55,17.098,52.598C7.29,70.135,5.416,91.713,5.416,111.662c-0.001,19.949,1.874,41.525,11.682,59.063
				c8.973,16.048,20.564,25.948,36.357,28.789c18.593,2.856,36.854,2.086,55.28,2.306c10.277-0.461,21.261-1.562,27.148-5.098
				c13.382,1.534,24.787,1.752,38.004,2.217c5.369,4.363,16.003,5.785,22.58,0.618c32.166,0.822,66.126-1.373,96.535-5.388
				c-0.511,0.633,0.274,2.435-0.672,3.006c-2.753,1.662-8.521,19.745-6.352,20.613c8.436,3.371,13.637-5.677,16.236-16.626
				c18.977,2.312,37.181,1.852,55.279,1.976c22.223,0.15,43.358-11.71,54.045-28.299
				C424.194,155.196,426.596,132.501,425.277,111.662z"/>
		</defs>
		<clipPath id="SVGID_2_">
			<use xlink:href="#SVGID_1_"  style="overflow:visible;"/>
		</clipPath>
		<g style="clip-path:url(#SVGID_2_);">
			<rect x="-4.308" y="-35.574" style="fill:#303188;" width="437.308" height="292.867"/>
			<polygon style="fill:#FFFFFF;" points="-4.308,-35.574 50.49,-35.574 165.228,41.257 165.228,-35.574 263.529,-35.574 
				263.529,41.238 378.208,-35.574 433,-35.574 433,-35.574 433,1.106 342.53,61.696 433,61.696 433,160.019 342.53,160.019 
				433,220.605 433,257.293 378.234,257.293 263.529,180.475 263.529,257.293 165.228,257.293 165.228,180.445 50.471,257.293 
				-4.308,257.293 -4.308,220.614 86.155,160.019 -4.308,160.019 -4.308,61.696 86.181,61.696 -4.308,1.094 			"/>
			<polygon style="fill:#ED1C24;" points="165.228,167.047 165.228,160.019 140.947,160.019 -4.308,257.293 30.423,257.293 			"/>
			<polygon style="fill:#ED1C24;" points="263.529,54.652 263.529,61.696 287.746,61.696 433,-35.574 398.237,-35.574 			"/>
			<polygon style="fill:#ED1C24;" points="-4.308,-12.328 106.216,61.696 140.947,61.696 -4.308,-35.574 -4.308,-35.574 			"/>
			<polygon style="fill:#ED1C24;" points="287.771,160.019 433,257.293 433,234.023 322.502,160.019 			"/>
			<polygon style="fill:#ED1C24;" points="243.864,81.37 243.864,-35.574 184.873,-35.574 184.873,81.37 -4.308,81.37 
				-4.308,140.357 184.873,140.357 184.873,257.293 243.864,257.293 243.864,140.357 433,140.357 433,81.37 			"/>
		</g>
	</g>
	<g style="display:inline;">
		<path style="fill-rule:evenodd;clip-rule:evenodd;" d="M92.094,34.957c76.754-10.44,144.761-12.968,219.803-3.619
			C240.975,44.268,167.404,43.964,92.094,34.957z"/>
		<path style="fill-rule:evenodd;clip-rule:evenodd;" d="M202.909,60.623l40.044,0.823c4.393,0.091,7.905,3.596,7.988,7.987
			c0.259,13.846,1.036,27.71,0.777,41.532c0.259,13.822-0.518,27.687-0.777,41.532c-0.083,4.392-3.595,7.897-7.987,7.987
			l-40.045,0.824c-4.393,0.09-7.987-3.594-7.987-7.988c0-28.236,0-56.474,0-84.71C194.922,64.217,198.517,60.533,202.909,60.623z"/>
		<path style="fill-rule:evenodd;clip-rule:evenodd;" d="M311.897,191.311c-76.753-10.441-144.759-12.969-219.804-3.621
			C163.017,200.621,236.587,200.317,311.897,191.311z"/>
		<path style="fill-rule:evenodd;clip-rule:evenodd;" d="M43.726,111.296c0.025-20.668,4.467-40.864,16.78-60.215
			c21.388-0.33,42.775-0.658,64.164-0.988c-4.832,17.398-6.364,38.956-7.239,61.203c0.875,22.247,2.407,43.805,7.241,61.202
			c-21.391-0.329-42.778-0.658-64.166-0.987C48.192,152.16,43.751,131.965,43.726,111.296z"/>
		
			<path style="fill-rule:evenodd;clip-rule:evenodd;fill:#282829;stroke:#414042;stroke-width:0.216;stroke-miterlimit:22.9256;" d="
			M67.552,50.973l57.118-0.88c-4.832,17.398-6.364,38.956-7.239,61.203c0.875,22.247,2.407,43.805,7.241,61.202l-53.424-0.822
			c-4.712-20.136-7.451-44.149-7.451-69.936C63.797,83.711,65.137,66.549,67.552,50.973z"/>
		<path style="fill-rule:evenodd;clip-rule:evenodd;" d="M274.798,111.296c-0.159-22.931-2.415-45.237-9.625-67.125
			c20.401-2.961,40.802-5.922,61.202-8.883c22.443,13.605,32.623,39.993,33.562,76.009c-0.939,36.017-11.119,62.404-33.562,76.01
			c-20.4-2.961-40.801-5.922-61.202-8.885C272.383,156.534,274.638,134.228,274.798,111.296z"/>
		
			<path style="fill-rule:evenodd;clip-rule:evenodd;fill:#282829;stroke:#414042;stroke-width:0.216;stroke-miterlimit:22.9256;" d="
			M274.798,111.296c-0.159-22.931-2.415-45.237-9.625-67.125l52.605-7.635c3.737,18.543,5.872,39.91,5.872,62.66
			c-0.001,33.056-4.5,63.198-11.892,85.989l-46.586-6.763C272.383,156.534,274.638,134.228,274.798,111.296z"/>
		
			<path style="fill-rule:evenodd;clip-rule:evenodd;fill:#414042;stroke:#414042;stroke-width:0.216;stroke-miterlimit:22.9256;" d="
			M385.773,31.321c2.23-0.868,8.514,4.01,14.033,10.89c5.52,6.881,8.186,13.162,5.956,14.028
			c-2.229,0.866-8.515-4.011-14.033-10.891C386.211,38.469,383.543,32.187,385.773,31.321L385.773,31.321z M405.763,166.354
			c-2.23-0.867-8.515,4.01-14.033,10.89c-5.519,6.88-8.187,13.162-5.956,14.028c2.23,0.866,8.514-4.011,14.033-10.891
			C405.326,173.501,407.992,167.219,405.763,166.354z"/>
		
			<path style="fill-rule:evenodd;clip-rule:evenodd;fill:#ED1C24;stroke:#ED1C24;stroke-width:0.216;stroke-miterlimit:22.9256;" d="
			M42.016,35.159c3.27,0,2.44,5.452-1.854,12.175c-4.294,6.722-10.429,12.174-13.698,12.174c-3.271,0-2.44-5.452,1.853-12.174
			C32.609,40.611,38.744,35.159,42.016,35.159L42.016,35.159z M26.463,163.084c-3.271,0-2.44,5.452,1.853,12.174
			c4.294,6.724,10.429,12.176,13.7,12.176c3.27,0,2.44-5.453-1.853-12.176C35.867,168.536,29.732,163.084,26.463,163.084z"/>
	</g>
</g>
<g id="Layer_3" style="display:none;">
	
		<path style="display:inline;fill-rule:evenodd;clip-rule:evenodd;fill:#FED23B;stroke:#000000;stroke-width:5.6693;stroke-miterlimit:22.9256;" d="
		M425.277,111.662c1.318-20.84-1.083-43.536-13.738-63.177c-10.687-16.589-31.822-28.45-54.045-28.299
		c-18.098,0.123-36.303-0.337-55.279,1.976c-2.598-10.951-7.801-19.996-16.236-16.626c-2.168,0.867,3.6,18.951,6.353,20.613
		c0.945,0.57,0.16,2.371,0.671,3.005c-30.408-4.016-64.368-6.209-96.535-5.388c-6.576-5.167-17.21-3.744-22.58,0.619
		c-13.217,0.465-24.625,0.681-38.004,2.217c-5.889-3.536-16.871-4.638-27.148-5.099c-18.427,0.22-36.688-0.549-55.28,2.308
		C37.66,26.65,26.07,36.55,17.098,52.599C7.29,70.135,5.416,91.714,5.416,111.662c-0.001,19.949,1.874,41.525,11.682,59.063
		c8.973,16.048,20.564,25.948,36.357,28.789c18.593,2.856,36.854,2.086,55.28,2.306c10.277-0.461,21.261-1.562,27.148-5.098
		c13.382,1.534,24.787,1.752,38.004,2.217c5.369,4.363,16.003,5.785,22.58,0.618c32.166,0.822,66.126-1.373,96.535-5.387
		c-0.511,0.633,0.274,2.435-0.672,3.005c-2.753,1.662-8.521,19.746-6.352,20.613c8.437,3.371,13.639-5.677,16.236-16.626
		c18.977,2.312,37.182,1.852,55.281,1.975c22.221,0.15,43.357-11.709,54.043-28.298
		C424.194,155.196,426.596,132.501,425.277,111.662z"/>
	<g style="display:inline;">
		<defs>
			<path id="SVGID_3_" d="M425.277,111.662c1.318-20.84-1.083-43.536-13.738-63.178c-10.687-16.588-31.822-28.449-54.045-28.298
				c-18.099,0.123-36.303-0.337-55.279,1.975c-2.598-10.95-7.801-19.996-16.236-16.625c-2.169,0.866,3.599,18.951,6.352,20.612
				c0.946,0.57,0.161,2.372,0.672,3.005c-30.408-4.015-64.369-6.208-96.535-5.387c-6.576-5.167-17.21-3.745-22.58,0.618
				c-13.217,0.466-24.625,0.682-38.004,2.218c-5.889-3.537-16.871-4.638-27.148-5.099c-18.427,0.22-36.688-0.55-55.28,2.307
				C37.66,26.649,26.07,36.55,17.098,52.598C7.29,70.135,5.416,91.713,5.416,111.662c-0.001,19.949,1.874,41.525,11.682,59.063
				c8.973,16.048,20.564,25.948,36.357,28.789c18.593,2.856,36.854,2.086,55.28,2.306c10.277-0.461,21.261-1.562,27.148-5.098
				c13.382,1.534,24.787,1.752,38.004,2.217c5.369,4.363,16.003,5.785,22.58,0.618c32.166,0.822,66.126-1.373,96.535-5.388
				c-0.511,0.633,0.274,2.435-0.672,3.006c-2.753,1.662-8.521,19.745-6.352,20.613c8.436,3.371,13.637-5.677,16.236-16.626
				c18.977,2.312,37.181,1.852,55.279,1.976c22.223,0.15,43.358-11.71,54.045-28.299
				C424.194,155.196,426.596,132.501,425.277,111.662z"/>
		</defs>
		<clipPath id="SVGID_4_">
			<use xlink:href="#SVGID_3_"  style="overflow:visible;"/>
		</clipPath>
		<g style="clip-path:url(#SVGID_4_);">
			<rect x="6.471" width="417.059" height="224"/>
			<rect x="6.471" style="fill:#ED1C24;" width="417.059" height="149.328"/>
			<rect x="6.471" style="fill:#FFCB05;" width="417.059" height="74.689"/>
		</g>
	</g>
	<g style="display:inline;">
		<path style="fill-rule:evenodd;clip-rule:evenodd;" d="M92.094,34.957c76.754-10.44,144.761-12.968,219.803-3.619
			C240.975,44.268,167.404,43.964,92.094,34.957z"/>
		<path style="fill-rule:evenodd;clip-rule:evenodd;" d="M202.909,60.623l40.044,0.823c4.393,0.091,7.905,3.596,7.988,7.987
			c0.259,13.846,1.036,27.71,0.777,41.532c0.259,13.822-0.518,27.687-0.777,41.532c-0.083,4.392-3.595,7.897-7.987,7.987
			l-40.045,0.824c-4.393,0.09-7.987-3.594-7.987-7.988c0-28.236,0-56.474,0-84.71C194.922,64.217,198.517,60.533,202.909,60.623z"/>
		<path style="fill-rule:evenodd;clip-rule:evenodd;" d="M311.897,191.311c-76.753-10.441-144.759-12.969-219.804-3.621
			C163.017,200.621,236.587,200.317,311.897,191.311z"/>
		<path style="fill-rule:evenodd;clip-rule:evenodd;" d="M43.726,111.296c0.025-20.668,4.467-40.864,16.78-60.215
			c21.388-0.33,42.775-0.658,64.164-0.988c-4.832,17.398-6.364,38.956-7.239,61.203c0.875,22.247,2.407,43.805,7.241,61.202
			c-21.391-0.329-42.778-0.658-64.166-0.987C48.192,152.16,43.751,131.965,43.726,111.296z"/>
		
			<path style="fill-rule:evenodd;clip-rule:evenodd;fill:#282829;stroke:#414042;stroke-width:0.216;stroke-miterlimit:22.9256;" d="
			M67.552,50.973l57.118-0.88c-4.832,17.398-6.364,38.956-7.239,61.203c0.875,22.247,2.407,43.805,7.241,61.202l-53.424-0.822
			c-4.712-20.136-7.451-44.149-7.451-69.936C63.797,83.711,65.137,66.549,67.552,50.973z"/>
		<path style="fill-rule:evenodd;clip-rule:evenodd;" d="M274.798,111.296c-0.159-22.931-2.415-45.237-9.625-67.125
			c20.401-2.961,40.802-5.922,61.202-8.883c22.443,13.605,32.623,39.993,33.562,76.009c-0.939,36.017-11.119,62.404-33.562,76.01
			c-20.4-2.961-40.801-5.922-61.202-8.885C272.383,156.534,274.638,134.228,274.798,111.296z"/>
		
			<path style="fill-rule:evenodd;clip-rule:evenodd;fill:#282829;stroke:#414042;stroke-width:0.216;stroke-miterlimit:22.9256;" d="
			M274.798,111.296c-0.159-22.931-2.415-45.237-9.625-67.125l52.605-7.635c3.737,18.543,5.872,39.91,5.872,62.66
			c-0.001,33.056-4.5,63.198-11.892,85.989l-46.586-6.763C272.383,156.534,274.638,134.228,274.798,111.296z"/>
		
			<path style="fill-rule:evenodd;clip-rule:evenodd;fill:#414042;stroke:#414042;stroke-width:0.216;stroke-miterlimit:22.9256;" d="
			M385.773,31.321c2.23-0.868,8.514,4.01,14.033,10.89c5.52,6.881,8.186,13.162,5.956,14.028
			c-2.229,0.866-8.515-4.011-14.033-10.891C386.211,38.469,383.543,32.187,385.773,31.321L385.773,31.321z M405.763,166.354
			c-2.23-0.867-8.515,4.01-14.033,10.89c-5.519,6.88-8.187,13.162-5.956,14.028c2.23,0.866,8.514-4.011,14.033-10.891
			C405.326,173.501,407.992,167.219,405.763,166.354z"/>
		
			<path style="fill-rule:evenodd;clip-rule:evenodd;fill:#ED1C24;stroke:#ED1C24;stroke-width:0.216;stroke-miterlimit:22.9256;" d="
			M42.016,35.159c3.27,0,2.44,5.452-1.854,12.175c-4.294,6.722-10.429,12.174-13.698,12.174c-3.271,0-2.44-5.452,1.853-12.174
			C32.609,40.611,38.744,35.159,42.016,35.159L42.016,35.159z M26.463,163.084c-3.271,0-2.44,5.452,1.853,12.174
			c4.294,6.724,10.429,12.176,13.7,12.176c3.27,0,2.44-5.453-1.853-12.176C35.867,168.536,29.732,163.084,26.463,163.084z"/>
	</g>
</g>
<g id="Layer_4" style="display:none;">
	
		<path style="display:inline;fill-rule:evenodd;clip-rule:evenodd;fill:#FED23B;stroke:#000000;stroke-width:5.6693;stroke-miterlimit:22.9256;" d="
		M425.277,111.662c1.318-20.84-1.083-43.536-13.738-63.177c-10.687-16.589-31.822-28.45-54.045-28.299
		c-18.098,0.123-36.303-0.337-55.279,1.976c-2.598-10.951-7.801-19.996-16.236-16.626c-2.168,0.867,3.6,18.951,6.353,20.613
		c0.945,0.57,0.16,2.371,0.671,3.005c-30.408-4.016-64.368-6.209-96.535-5.388c-6.576-5.167-17.21-3.744-22.58,0.619
		c-13.217,0.465-24.625,0.681-38.004,2.217c-5.889-3.536-16.871-4.638-27.148-5.099c-18.427,0.22-36.688-0.549-55.28,2.308
		C37.66,26.65,26.07,36.55,17.098,52.599C7.29,70.135,5.416,91.714,5.416,111.662c-0.001,19.949,1.874,41.525,11.682,59.063
		c8.973,16.048,20.564,25.948,36.357,28.789c18.593,2.856,36.854,2.086,55.28,2.306c10.277-0.461,21.261-1.562,27.148-5.098
		c13.382,1.534,24.787,1.752,38.004,2.217c5.369,4.363,16.003,5.785,22.58,0.618c32.166,0.822,66.126-1.373,96.535-5.387
		c-0.511,0.633,0.274,2.435-0.672,3.005c-2.753,1.662-8.521,19.746-6.352,20.613c8.437,3.371,13.639-5.677,16.236-16.626
		c18.977,2.312,37.182,1.852,55.281,1.975c22.221,0.15,43.357-11.709,54.043-28.298
		C424.194,155.196,426.596,132.501,425.277,111.662z"/>
	<g style="display:inline;">
		<defs>
			<path id="SVGID_5_" d="M425.277,111.662c1.318-20.84-1.083-43.536-13.738-63.178c-10.687-16.588-31.822-28.449-54.045-28.298
				c-18.099,0.123-36.303-0.337-55.279,1.975c-2.598-10.95-7.801-19.996-16.236-16.625c-2.169,0.866,3.599,18.951,6.352,20.612
				c0.946,0.57,0.161,2.372,0.672,3.005c-30.408-4.015-64.369-6.208-96.535-5.387c-6.576-5.167-17.21-3.745-22.58,0.618
				c-13.217,0.466-24.625,0.682-38.004,2.218c-5.889-3.537-16.871-4.638-27.148-5.099c-18.427,0.22-36.688-0.55-55.28,2.307
				C37.66,26.649,26.07,36.55,17.098,52.598C7.29,70.135,5.416,91.713,5.416,111.662c-0.001,19.949,1.874,41.525,11.682,59.063
				c8.973,16.048,20.564,25.948,36.357,28.789c18.593,2.856,36.854,2.086,55.28,2.306c10.277-0.461,21.261-1.562,27.148-5.098
				c13.382,1.534,24.787,1.752,38.004,2.217c5.369,4.363,16.003,5.785,22.58,0.618c32.166,0.822,66.126-1.373,96.535-5.388
				c-0.511,0.633,0.274,2.435-0.672,3.006c-2.753,1.662-8.521,19.745-6.352,20.613c8.436,3.371,13.637-5.677,16.236-16.626
				c18.977,2.312,37.181,1.852,55.279,1.976c22.223,0.15,43.358-11.71,54.045-28.299
				C424.194,155.196,426.596,132.501,425.277,111.662z"/>
		</defs>
		<clipPath id="SVGID_6_">
			<use xlink:href="#SVGID_5_"  style="overflow:visible;"/>
		</clipPath>
		<g style="clip-path:url(#SVGID_6_);">
			<g>
				<defs>
					<rect id="SVGID_7_" y="0" width="430" height="224"/>
				</defs>
				<clipPath id="SVGID_8_">
					<use xlink:href="#SVGID_7_"  style="overflow:visible;"/>
				</clipPath>
				<rect y="0" style="clip-path:url(#SVGID_8_);fill:#324689;" width="430" height="224"/>
				<rect y="74.663" style="clip-path:url(#SVGID_8_);fill:#FFFFFF;" width="430" height="149.337"/>
				<rect y="149.327" style="clip-path:url(#SVGID_8_);fill:#9F1C32;" width="430" height="74.673"/>
			</g>
		</g>
	</g>
	<g style="display:inline;">
		<path style="fill-rule:evenodd;clip-rule:evenodd;" d="M92.094,34.957c76.754-10.44,144.761-12.968,219.803-3.619
			C240.975,44.268,167.404,43.964,92.094,34.957z"/>
		<path style="fill-rule:evenodd;clip-rule:evenodd;" d="M202.909,60.623l40.044,0.823c4.393,0.091,7.905,3.596,7.988,7.987
			c0.259,13.846,1.036,27.71,0.777,41.532c0.259,13.822-0.518,27.687-0.777,41.532c-0.083,4.392-3.595,7.897-7.987,7.987
			l-40.045,0.824c-4.393,0.09-7.987-3.594-7.987-7.988c0-28.236,0-56.474,0-84.71C194.922,64.217,198.517,60.533,202.909,60.623z"/>
		<path style="fill-rule:evenodd;clip-rule:evenodd;" d="M311.897,191.311c-76.753-10.441-144.759-12.969-219.804-3.621
			C163.017,200.621,236.587,200.317,311.897,191.311z"/>
		<path style="fill-rule:evenodd;clip-rule:evenodd;" d="M43.726,111.296c0.025-20.668,4.467-40.864,16.78-60.215
			c21.388-0.33,42.775-0.658,64.164-0.988c-4.832,17.398-6.364,38.956-7.239,61.203c0.875,22.247,2.407,43.805,7.241,61.202
			c-21.391-0.329-42.778-0.658-64.166-0.987C48.192,152.16,43.751,131.965,43.726,111.296z"/>
		
			<path style="fill-rule:evenodd;clip-rule:evenodd;fill:#282829;stroke:#414042;stroke-width:0.216;stroke-miterlimit:22.9256;" d="
			M67.552,50.973l57.118-0.88c-4.832,17.398-6.364,38.956-7.239,61.203c0.875,22.247,2.407,43.805,7.241,61.202l-53.424-0.822
			c-4.712-20.136-7.451-44.149-7.451-69.936C63.797,83.711,65.137,66.549,67.552,50.973z"/>
		<path style="fill-rule:evenodd;clip-rule:evenodd;" d="M274.798,111.296c-0.159-22.931-2.415-45.237-9.625-67.125
			c20.401-2.961,40.802-5.922,61.202-8.883c22.443,13.605,32.623,39.993,33.562,76.009c-0.939,36.017-11.119,62.404-33.562,76.01
			c-20.4-2.961-40.801-5.922-61.202-8.885C272.383,156.534,274.638,134.228,274.798,111.296z"/>
		
			<path style="fill-rule:evenodd;clip-rule:evenodd;fill:#282829;stroke:#414042;stroke-width:0.216;stroke-miterlimit:22.9256;" d="
			M274.798,111.296c-0.159-22.931-2.415-45.237-9.625-67.125l52.605-7.635c3.737,18.543,5.872,39.91,5.872,62.66
			c-0.001,33.056-4.5,63.198-11.892,85.989l-46.586-6.763C272.383,156.534,274.638,134.228,274.798,111.296z"/>
		
			<path style="fill-rule:evenodd;clip-rule:evenodd;fill:#414042;stroke:#414042;stroke-width:0.216;stroke-miterlimit:22.9256;" d="
			M385.773,31.321c2.23-0.868,8.514,4.01,14.033,10.89c5.52,6.881,8.186,13.162,5.956,14.028
			c-2.229,0.866-8.515-4.011-14.033-10.891C386.211,38.469,383.543,32.187,385.773,31.321L385.773,31.321z M405.763,166.354
			c-2.23-0.867-8.515,4.01-14.033,10.89c-5.519,6.88-8.187,13.162-5.956,14.028c2.23,0.866,8.514-4.011,14.033-10.891
			C405.326,173.501,407.992,167.219,405.763,166.354z"/>
		
			<path style="fill-rule:evenodd;clip-rule:evenodd;fill:#ED1C24;stroke:#ED1C24;stroke-width:0.216;stroke-miterlimit:22.9256;" d="
			M42.016,35.159c3.27,0,2.44,5.452-1.854,12.175c-4.294,6.722-10.429,12.174-13.698,12.174c-3.271,0-2.44-5.452,1.853-12.174
			C32.609,40.611,38.744,35.159,42.016,35.159L42.016,35.159z M26.463,163.084c-3.271,0-2.44,5.452,1.853,12.174
			c4.294,6.724,10.429,12.176,13.7,12.176c3.27,0,2.44-5.453-1.853-12.176C35.867,168.536,29.732,163.084,26.463,163.084z"/>
	</g>
</g>
<g id="Layer_5" style="display:none;">
	
		<path style="display:inline;fill-rule:evenodd;clip-rule:evenodd;fill:#FED23B;stroke:#000000;stroke-width:5.6693;stroke-miterlimit:22.9256;" d="
		M425.277,111.662c1.318-20.84-1.083-43.536-13.738-63.177c-10.687-16.589-31.822-28.45-54.045-28.299
		c-18.098,0.123-36.303-0.337-55.279,1.976c-2.598-10.951-7.801-19.996-16.236-16.626c-2.168,0.867,3.6,18.951,6.353,20.613
		c0.945,0.57,0.16,2.371,0.671,3.005c-30.408-4.016-64.368-6.209-96.535-5.388c-6.576-5.167-17.21-3.744-22.58,0.619
		c-13.217,0.465-24.625,0.681-38.004,2.217c-5.889-3.536-16.871-4.638-27.148-5.099c-18.427,0.22-36.688-0.549-55.28,2.308
		C37.66,26.65,26.07,36.55,17.098,52.599C7.29,70.135,5.416,91.714,5.416,111.662c-0.001,19.949,1.874,41.525,11.682,59.063
		c8.973,16.048,20.564,25.948,36.357,28.789c18.593,2.856,36.854,2.086,55.28,2.306c10.277-0.461,21.261-1.562,27.148-5.098
		c13.382,1.534,24.787,1.752,38.004,2.217c5.369,4.363,16.003,5.785,22.58,0.618c32.166,0.822,66.126-1.373,96.535-5.387
		c-0.511,0.633,0.274,2.435-0.672,3.005c-2.753,1.662-8.521,19.746-6.352,20.613c8.437,3.371,13.639-5.677,16.236-16.626
		c18.977,2.312,37.182,1.852,55.281,1.975c22.221,0.15,43.357-11.709,54.043-28.298
		C424.194,155.196,426.596,132.501,425.277,111.662z"/>
	<g style="display:inline;">
		<defs>
			<path id="SVGID_9_" d="M425.277,111.662c1.318-20.84-1.083-43.536-13.738-63.178c-10.687-16.588-31.822-28.449-54.045-28.298
				c-18.099,0.123-36.303-0.337-55.279,1.975c-2.598-10.95-7.801-19.996-16.236-16.625c-2.169,0.866,3.599,18.951,6.352,20.612
				c0.946,0.57,0.161,2.372,0.672,3.005c-30.408-4.015-64.369-6.208-96.535-5.387c-6.576-5.167-17.21-3.745-22.58,0.618
				c-13.217,0.466-24.625,0.682-38.004,2.218c-5.889-3.537-16.871-4.638-27.148-5.099c-18.427,0.22-36.688-0.55-55.28,2.307
				C37.66,26.649,26.07,36.55,17.098,52.598C7.29,70.135,5.416,91.713,5.416,111.662c-0.001,19.949,1.874,41.525,11.682,59.063
				c8.973,16.048,20.564,25.948,36.357,28.789c18.593,2.856,36.854,2.086,55.28,2.306c10.277-0.461,21.261-1.562,27.148-5.098
				c13.382,1.534,24.787,1.752,38.004,2.217c5.369,4.363,16.003,5.785,22.58,0.618c32.166,0.822,66.126-1.373,96.535-5.388
				c-0.511,0.633,0.274,2.435-0.672,3.006c-2.753,1.662-8.521,19.745-6.352,20.613c8.436,3.371,13.637-5.677,16.236-16.626
				c18.977,2.312,37.181,1.852,55.279,1.976c22.223,0.15,43.358-11.71,54.045-28.299
				C424.194,155.196,426.596,132.501,425.277,111.662z"/>
		</defs>
		<clipPath id="SVGID_10_">
			<use xlink:href="#SVGID_9_"  style="overflow:visible;"/>
		</clipPath>
		<g style="clip-path:url(#SVGID_10_);">
			<g>
				<defs>
					<rect id="SVGID_11_" x="1.186" y="0" width="428.814" height="223.893"/>
				</defs>
				<clipPath id="SVGID_12_">
					<use xlink:href="#SVGID_11_"  style="overflow:visible;"/>
				</clipPath>
				<rect x="287.061" y="0" style="clip-path:url(#SVGID_12_);fill:#010101;" width="142.939" height="223.893"/>
				<rect x="144.117" y="0" style="clip-path:url(#SVGID_12_);fill:#F7DE28;" width="142.943" height="223.893"/>
				<rect x="1.182" y="0" style="clip-path:url(#SVGID_12_);fill:#DA1F26;" width="142.936" height="223.893"/>
			</g>
		</g>
	</g>
	<g style="display:inline;">
		<path style="fill-rule:evenodd;clip-rule:evenodd;" d="M92.094,34.957c76.754-10.44,144.761-12.968,219.803-3.619
			C240.975,44.268,167.404,43.964,92.094,34.957z"/>
		<path style="fill-rule:evenodd;clip-rule:evenodd;" d="M202.909,60.623l40.044,0.823c4.393,0.091,7.905,3.596,7.988,7.987
			c0.259,13.846,1.036,27.71,0.777,41.532c0.259,13.822-0.518,27.687-0.777,41.532c-0.083,4.392-3.595,7.897-7.987,7.987
			l-40.045,0.824c-4.393,0.09-7.987-3.594-7.987-7.988c0-28.236,0-56.474,0-84.71C194.922,64.217,198.517,60.533,202.909,60.623z"/>
		<path style="fill-rule:evenodd;clip-rule:evenodd;" d="M311.897,191.311c-76.753-10.441-144.759-12.969-219.804-3.621
			C163.017,200.621,236.587,200.317,311.897,191.311z"/>
		<path style="fill-rule:evenodd;clip-rule:evenodd;" d="M43.726,111.296c0.025-20.668,4.467-40.864,16.78-60.215
			c21.388-0.33,42.775-0.658,64.164-0.988c-4.832,17.398-6.364,38.956-7.239,61.203c0.875,22.247,2.407,43.805,7.241,61.202
			c-21.391-0.329-42.778-0.658-64.166-0.987C48.192,152.16,43.751,131.965,43.726,111.296z"/>
		
			<path style="fill-rule:evenodd;clip-rule:evenodd;fill:#282829;stroke:#414042;stroke-width:0.216;stroke-miterlimit:22.9256;" d="
			M67.552,50.973l57.118-0.88c-4.832,17.398-6.364,38.956-7.239,61.203c0.875,22.247,2.407,43.805,7.241,61.202l-53.424-0.822
			c-4.712-20.136-7.451-44.149-7.451-69.936C63.797,83.711,65.137,66.549,67.552,50.973z"/>
		<path style="fill-rule:evenodd;clip-rule:evenodd;" d="M274.798,111.296c-0.159-22.931-2.415-45.237-9.625-67.125
			c20.401-2.961,40.802-5.922,61.202-8.883c22.443,13.605,32.623,39.993,33.562,76.009c-0.939,36.017-11.119,62.404-33.562,76.01
			c-20.4-2.961-40.801-5.922-61.202-8.885C272.383,156.534,274.638,134.228,274.798,111.296z"/>
		
			<path style="fill-rule:evenodd;clip-rule:evenodd;fill:#282829;stroke:#414042;stroke-width:0.216;stroke-miterlimit:22.9256;" d="
			M274.798,111.296c-0.159-22.931-2.415-45.237-9.625-67.125l52.605-7.635c3.737,18.543,5.872,39.91,5.872,62.66
			c-0.001,33.056-4.5,63.198-11.892,85.989l-46.586-6.763C272.383,156.534,274.638,134.228,274.798,111.296z"/>
		
			<path style="fill-rule:evenodd;clip-rule:evenodd;fill:#414042;stroke:#414042;stroke-width:0.216;stroke-miterlimit:22.9256;" d="
			M385.773,31.321c2.23-0.868,8.514,4.01,14.033,10.89c5.52,6.881,8.186,13.162,5.956,14.028
			c-2.229,0.866-8.515-4.011-14.033-10.891C386.211,38.469,383.543,32.187,385.773,31.321L385.773,31.321z M405.763,166.354
			c-2.23-0.867-8.515,4.01-14.033,10.89c-5.519,6.88-8.187,13.162-5.956,14.028c2.23,0.866,8.514-4.011,14.033-10.891
			C405.326,173.501,407.992,167.219,405.763,166.354z"/>
		
			<path style="fill-rule:evenodd;clip-rule:evenodd;fill:#ED1C24;stroke:#ED1C24;stroke-width:0.216;stroke-miterlimit:22.9256;" d="
			M42.016,35.159c3.27,0,2.44,5.452-1.854,12.175c-4.294,6.722-10.429,12.174-13.698,12.174c-3.271,0-2.44-5.452,1.853-12.174
			C32.609,40.611,38.744,35.159,42.016,35.159L42.016,35.159z M26.463,163.084c-3.271,0-2.44,5.452,1.853,12.174
			c4.294,6.724,10.429,12.176,13.7,12.176c3.27,0,2.44-5.453-1.853-12.176C35.867,168.536,29.732,163.084,26.463,163.084z"/>
	</g>
</g>
<g id="Layer_6" style="display:none;">
	
		<path style="display:inline;fill-rule:evenodd;clip-rule:evenodd;fill:#FED23B;stroke:#000000;stroke-width:5.6693;stroke-miterlimit:22.9256;" d="
		M425.277,111.662c1.318-20.84-1.083-43.536-13.738-63.177c-10.687-16.589-31.822-28.45-54.045-28.299
		c-18.098,0.123-36.303-0.337-55.279,1.976c-2.598-10.951-7.801-19.996-16.236-16.626c-2.168,0.867,3.6,18.951,6.353,20.613
		c0.945,0.57,0.16,2.371,0.671,3.005c-30.408-4.016-64.368-6.209-96.535-5.388c-6.576-5.167-17.21-3.744-22.58,0.619
		c-13.217,0.465-24.625,0.681-38.004,2.217c-5.889-3.536-16.871-4.638-27.148-5.099c-18.427,0.22-36.688-0.549-55.28,2.308
		C37.66,26.65,26.07,36.55,17.098,52.599C7.29,70.135,5.416,91.714,5.416,111.662c-0.001,19.949,1.874,41.525,11.682,59.063
		c8.973,16.048,20.564,25.948,36.357,28.789c18.593,2.856,36.854,2.086,55.28,2.306c10.277-0.461,21.261-1.562,27.148-5.098
		c13.382,1.534,24.787,1.752,38.004,2.217c5.369,4.363,16.003,5.785,22.58,0.618c32.166,0.822,66.126-1.373,96.535-5.387
		c-0.511,0.633,0.274,2.435-0.672,3.005c-2.753,1.662-8.521,19.746-6.352,20.613c8.437,3.371,13.639-5.677,16.236-16.626
		c18.977,2.312,37.182,1.852,55.281,1.975c22.221,0.15,43.357-11.709,54.043-28.298
		C424.194,155.196,426.596,132.501,425.277,111.662z"/>
	<g style="display:inline;">
		<defs>
			<path id="SVGID_13_" d="M425.277,111.662c1.318-20.84-1.083-43.536-13.738-63.178c-10.687-16.588-31.822-28.449-54.045-28.298
				c-18.099,0.123-36.303-0.337-55.279,1.975c-2.598-10.95-7.801-19.996-16.236-16.625c-2.169,0.866,3.599,18.951,6.352,20.612
				c0.946,0.57,0.161,2.372,0.672,3.005c-30.408-4.015-64.369-6.208-96.535-5.387c-6.576-5.167-17.21-3.745-22.58,0.618
				c-13.217,0.466-24.625,0.682-38.004,2.218c-5.889-3.537-16.871-4.638-27.148-5.099c-18.427,0.22-36.688-0.55-55.28,2.307
				C37.66,26.649,26.07,36.55,17.098,52.598C7.29,70.135,5.416,91.713,5.416,111.662c-0.001,19.949,1.874,41.525,11.682,59.063
				c8.973,16.048,20.564,25.948,36.357,28.789c18.593,2.856,36.854,2.086,55.28,2.306c10.277-0.461,21.261-1.562,27.148-5.098
				c13.382,1.534,24.787,1.752,38.004,2.217c5.369,4.363,16.003,5.785,22.58,0.618c32.166,0.822,66.126-1.373,96.535-5.388
				c-0.511,0.633,0.274,2.435-0.672,3.006c-2.753,1.662-8.521,19.745-6.352,20.613c8.436,3.371,13.637-5.677,16.236-16.626
				c18.977,2.312,37.181,1.852,55.279,1.976c22.223,0.15,43.358-11.71,54.045-28.299
				C424.194,155.196,426.596,132.501,425.277,111.662z"/>
		</defs>
		<clipPath id="SVGID_14_">
			<use xlink:href="#SVGID_13_"  style="overflow:visible;"/>
		</clipPath>
		<g style="clip-path:url(#SVGID_14_);">
			<g>
				<defs>
					<rect id="SVGID_15_" y="2.177" width="425.598" height="217.366"/>
				</defs>
				<clipPath id="SVGID_16_">
					<use xlink:href="#SVGID_15_"  style="overflow:visible;"/>
				</clipPath>
				<rect y="2.177" style="clip-path:url(#SVGID_16_);fill:#DC1E39;" width="425.598" height="217.366"/>
				<rect x="270.428" y="2.177" style="clip-path:url(#SVGID_16_);fill:#FFFFFF;" width="62.066" height="217.366"/>
				<rect y="83.689" style="clip-path:url(#SVGID_16_);fill:#FFFFFF;" width="425.598" height="54.341"/>
				<rect x="285.947" y="2.177" style="clip-path:url(#SVGID_16_);fill:#262D65;" width="31.038" height="217.366"/>
				<rect y="97.272" style="clip-path:url(#SVGID_16_);fill:#262D65;" width="425.598" height="27.171"/>
			</g>
		</g>
	</g>
	<g style="display:inline;">
		<path style="fill-rule:evenodd;clip-rule:evenodd;" d="M92.094,34.957c76.754-10.44,144.761-12.968,219.803-3.619
			C240.975,44.268,167.404,43.964,92.094,34.957z"/>
		<path style="fill-rule:evenodd;clip-rule:evenodd;" d="M202.909,60.623l40.044,0.823c4.393,0.091,7.905,3.596,7.988,7.987
			c0.259,13.846,1.036,27.71,0.777,41.532c0.259,13.822-0.518,27.687-0.777,41.532c-0.083,4.392-3.595,7.897-7.987,7.987
			l-40.045,0.824c-4.393,0.09-7.987-3.594-7.987-7.988c0-28.236,0-56.474,0-84.71C194.922,64.217,198.517,60.533,202.909,60.623z"/>
		<path style="fill-rule:evenodd;clip-rule:evenodd;" d="M311.897,191.311c-76.753-10.441-144.759-12.969-219.804-3.621
			C163.017,200.621,236.587,200.317,311.897,191.311z"/>
		<path style="fill-rule:evenodd;clip-rule:evenodd;" d="M43.726,111.296c0.025-20.668,4.467-40.864,16.78-60.215
			c21.388-0.33,42.775-0.658,64.164-0.988c-4.832,17.398-6.364,38.956-7.239,61.203c0.875,22.247,2.407,43.805,7.241,61.202
			c-21.391-0.329-42.778-0.658-64.166-0.987C48.192,152.16,43.751,131.965,43.726,111.296z"/>
		
			<path style="fill-rule:evenodd;clip-rule:evenodd;fill:#282829;stroke:#414042;stroke-width:0.216;stroke-miterlimit:22.9256;" d="
			M67.552,50.973l57.118-0.88c-4.832,17.398-6.364,38.956-7.239,61.203c0.875,22.247,2.407,43.805,7.241,61.202l-53.424-0.822
			c-4.712-20.136-7.451-44.149-7.451-69.936C63.797,83.711,65.137,66.549,67.552,50.973z"/>
		<path style="fill-rule:evenodd;clip-rule:evenodd;" d="M274.798,111.296c-0.159-22.931-2.415-45.237-9.625-67.125
			c20.401-2.961,40.802-5.922,61.202-8.883c22.443,13.605,32.623,39.993,33.562,76.009c-0.939,36.017-11.119,62.404-33.562,76.01
			c-20.4-2.961-40.801-5.922-61.202-8.885C272.383,156.534,274.638,134.228,274.798,111.296z"/>
		
			<path style="fill-rule:evenodd;clip-rule:evenodd;fill:#282829;stroke:#414042;stroke-width:0.216;stroke-miterlimit:22.9256;" d="
			M274.798,111.296c-0.159-22.931-2.415-45.237-9.625-67.125l52.605-7.635c3.737,18.543,5.872,39.91,5.872,62.66
			c-0.001,33.056-4.5,63.198-11.892,85.989l-46.586-6.763C272.383,156.534,274.638,134.228,274.798,111.296z"/>
		
			<path style="fill-rule:evenodd;clip-rule:evenodd;fill:#414042;stroke:#414042;stroke-width:0.216;stroke-miterlimit:22.9256;" d="
			M385.773,31.321c2.23-0.868,8.514,4.01,14.033,10.89c5.52,6.881,8.186,13.162,5.956,14.028
			c-2.229,0.866-8.515-4.011-14.033-10.891C386.211,38.469,383.543,32.187,385.773,31.321L385.773,31.321z M405.763,166.354
			c-2.23-0.867-8.515,4.01-14.033,10.89c-5.519,6.88-8.187,13.162-5.956,14.028c2.23,0.866,8.514-4.011,14.033-10.891
			C405.326,173.501,407.992,167.219,405.763,166.354z"/>
		
			<path style="fill-rule:evenodd;clip-rule:evenodd;fill:#ED1C24;stroke:#ED1C24;stroke-width:0.216;stroke-miterlimit:22.9256;" d="
			M42.016,35.159c3.27,0,2.44,5.452-1.854,12.175c-4.294,6.722-10.429,12.174-13.698,12.174c-3.271,0-2.44-5.452,1.853-12.174
			C32.609,40.611,38.744,35.159,42.016,35.159L42.016,35.159z M26.463,163.084c-3.271,0-2.44,5.452,1.853,12.174
			c4.294,6.724,10.429,12.176,13.7,12.176c3.27,0,2.44-5.453-1.853-12.176C35.867,168.536,29.732,163.084,26.463,163.084z"/>
	</g>
</g>
<g id="Layer_7" style="display:none;">
	
		<path style="display:inline;fill-rule:evenodd;clip-rule:evenodd;fill:#FED23B;stroke:#000000;stroke-width:5.6693;stroke-miterlimit:22.9256;" d="
		M425.277,111.662c1.318-20.84-1.083-43.536-13.738-63.177c-10.687-16.589-31.822-28.45-54.045-28.299
		c-18.098,0.123-36.303-0.337-55.279,1.976c-2.598-10.951-7.801-19.996-16.236-16.626c-2.168,0.867,3.6,18.951,6.353,20.613
		c0.945,0.57,0.16,2.371,0.671,3.005c-30.408-4.016-64.368-6.209-96.535-5.388c-6.576-5.167-17.21-3.744-22.58,0.619
		c-13.217,0.465-24.625,0.681-38.004,2.217c-5.889-3.536-16.871-4.638-27.148-5.099c-18.427,0.22-36.688-0.549-55.28,2.308
		C37.66,26.65,26.07,36.55,17.098,52.599C7.29,70.135,5.416,91.714,5.416,111.662c-0.001,19.949,1.874,41.525,11.682,59.063
		c8.973,16.048,20.564,25.948,36.357,28.789c18.593,2.856,36.854,2.086,55.28,2.306c10.277-0.461,21.261-1.562,27.148-5.098
		c13.382,1.534,24.787,1.752,38.004,2.217c5.369,4.363,16.003,5.785,22.58,0.618c32.166,0.822,66.126-1.373,96.535-5.387
		c-0.511,0.633,0.274,2.435-0.672,3.005c-2.753,1.662-8.521,19.746-6.352,20.613c8.437,3.371,13.639-5.677,16.236-16.626
		c18.977,2.312,37.182,1.852,55.281,1.975c22.221,0.15,43.357-11.709,54.043-28.298
		C424.194,155.196,426.596,132.501,425.277,111.662z"/>
	<g style="display:inline;">
		<defs>
			<path id="SVGID_17_" d="M425.277,111.662c1.318-20.84-1.083-43.536-13.738-63.178c-10.687-16.588-31.822-28.449-54.045-28.298
				c-18.099,0.123-36.303-0.337-55.279,1.975c-2.598-10.95-7.801-19.996-16.236-16.625c-2.169,0.866,3.599,18.951,6.352,20.612
				c0.946,0.57,0.161,2.372,0.672,3.005c-30.408-4.015-64.369-6.208-96.535-5.387c-6.576-5.167-17.21-3.745-22.58,0.618
				c-13.217,0.466-24.625,0.682-38.004,2.218c-5.889-3.537-16.871-4.638-27.148-5.099c-18.427,0.22-36.688-0.55-55.28,2.307
				C37.66,26.649,26.07,36.55,17.098,52.598C7.29,70.135,5.416,91.713,5.416,111.662c-0.001,19.949,1.874,41.525,11.682,59.063
				c8.973,16.048,20.564,25.948,36.357,28.789c18.593,2.856,36.854,2.086,55.28,2.306c10.277-0.461,21.261-1.562,27.148-5.098
				c13.382,1.534,24.787,1.752,38.004,2.217c5.369,4.363,16.003,5.785,22.58,0.618c32.166,0.822,66.126-1.373,96.535-5.388
				c-0.511,0.633,0.274,2.435-0.672,3.006c-2.753,1.662-8.521,19.745-6.352,20.613c8.436,3.371,13.637-5.677,16.236-16.626
				c18.977,2.312,37.181,1.852,55.279,1.976c22.223,0.15,43.358-11.71,54.045-28.299
				C424.194,155.196,426.596,132.501,425.277,111.662z"/>
		</defs>
		<clipPath id="SVGID_18_">
			<use xlink:href="#SVGID_17_"  style="overflow:visible;"/>
		</clipPath>
		<g style="clip-path:url(#SVGID_18_);">
			<g>
				<defs>
					<rect id="SVGID_19_" x="0.001" y="0.006" width="430" height="222.032"/>
				</defs>
				<clipPath id="SVGID_20_">
					<use xlink:href="#SVGID_19_"  style="overflow:visible;"/>
				</clipPath>
				<rect x="0.001" y="0.006" style="clip-path:url(#SVGID_20_);fill:#BE1F3E;" width="430" height="222.032"/>
				<rect x="244.056" y="0.006" style="clip-path:url(#SVGID_20_);fill:#FFFFFF;" width="46.483" height="222.032"/>
				<rect x="0.001" y="90.444" style="clip-path:url(#SVGID_20_);fill:#FFFFFF;" width="430" height="41.15"/>
			</g>
		</g>
	</g>
	<g style="display:inline;">
		<path style="fill-rule:evenodd;clip-rule:evenodd;" d="M92.094,34.957c76.754-10.44,144.761-12.968,219.803-3.619
			C240.975,44.268,167.404,43.964,92.094,34.957z"/>
		<path style="fill-rule:evenodd;clip-rule:evenodd;" d="M202.909,60.623l40.044,0.823c4.393,0.091,7.905,3.596,7.988,7.987
			c0.259,13.846,1.036,27.71,0.777,41.532c0.259,13.822-0.518,27.687-0.777,41.532c-0.083,4.392-3.595,7.897-7.987,7.987
			l-40.045,0.824c-4.393,0.09-7.987-3.594-7.987-7.988c0-28.236,0-56.474,0-84.71C194.922,64.217,198.517,60.533,202.909,60.623z"/>
		<path style="fill-rule:evenodd;clip-rule:evenodd;" d="M311.897,191.311c-76.753-10.441-144.759-12.969-219.804-3.621
			C163.017,200.621,236.587,200.317,311.897,191.311z"/>
		<path style="fill-rule:evenodd;clip-rule:evenodd;" d="M43.726,111.296c0.025-20.668,4.467-40.864,16.78-60.215
			c21.388-0.33,42.775-0.658,64.164-0.988c-4.832,17.398-6.364,38.956-7.239,61.203c0.875,22.247,2.407,43.805,7.241,61.202
			c-21.391-0.329-42.778-0.658-64.166-0.987C48.192,152.16,43.751,131.965,43.726,111.296z"/>
		
			<path style="fill-rule:evenodd;clip-rule:evenodd;fill:#282829;stroke:#414042;stroke-width:0.216;stroke-miterlimit:22.9256;" d="
			M67.552,50.973l57.118-0.88c-4.832,17.398-6.364,38.956-7.239,61.203c0.875,22.247,2.407,43.805,7.241,61.202l-53.424-0.822
			c-4.712-20.136-7.451-44.149-7.451-69.936C63.797,83.711,65.137,66.549,67.552,50.973z"/>
		<path style="fill-rule:evenodd;clip-rule:evenodd;" d="M274.798,111.296c-0.159-22.931-2.415-45.237-9.625-67.125
			c20.401-2.961,40.802-5.922,61.202-8.883c22.443,13.605,32.623,39.993,33.562,76.009c-0.939,36.017-11.119,62.404-33.562,76.01
			c-20.4-2.961-40.801-5.922-61.202-8.885C272.383,156.534,274.638,134.228,274.798,111.296z"/>
		
			<path style="fill-rule:evenodd;clip-rule:evenodd;fill:#282829;stroke:#414042;stroke-width:0.216;stroke-miterlimit:22.9256;" d="
			M274.798,111.296c-0.159-22.931-2.415-45.237-9.625-67.125l52.605-7.635c3.737,18.543,5.872,39.91,5.872,62.66
			c-0.001,33.056-4.5,63.198-11.892,85.989l-46.586-6.763C272.383,156.534,274.638,134.228,274.798,111.296z"/>
		
			<path style="fill-rule:evenodd;clip-rule:evenodd;fill:#414042;stroke:#414042;stroke-width:0.216;stroke-miterlimit:22.9256;" d="
			M385.773,31.321c2.23-0.868,8.514,4.01,14.033,10.89c5.52,6.881,8.186,13.162,5.956,14.028
			c-2.229,0.866-8.515-4.011-14.033-10.891C386.211,38.469,383.543,32.187,385.773,31.321L385.773,31.321z M405.763,166.354
			c-2.23-0.867-8.515,4.01-14.033,10.89c-5.519,6.88-8.187,13.162-5.956,14.028c2.23,0.866,8.514-4.011,14.033-10.891
			C405.326,173.501,407.992,167.219,405.763,166.354z"/>
		
			<path style="fill-rule:evenodd;clip-rule:evenodd;fill:#ED1C24;stroke:#ED1C24;stroke-width:0.216;stroke-miterlimit:22.9256;" d="
			M42.016,35.159c3.27,0,2.44,5.452-1.854,12.175c-4.294,6.722-10.429,12.174-13.698,12.174c-3.271,0-2.44-5.452,1.853-12.174
			C32.609,40.611,38.744,35.159,42.016,35.159L42.016,35.159z M26.463,163.084c-3.271,0-2.44,5.452,1.853,12.174
			c4.294,6.724,10.429,12.176,13.7,12.176c3.27,0,2.44-5.453-1.853-12.176C35.867,168.536,29.732,163.084,26.463,163.084z"/>
	</g>
</g>
<g id="Layer_8" style="display:none;">
	
		<path style="display:inline;fill-rule:evenodd;clip-rule:evenodd;fill:#FED23B;stroke:#000000;stroke-width:5.6693;stroke-miterlimit:22.9256;" d="
		M425.277,111.662c1.318-20.84-1.083-43.536-13.738-63.177c-10.687-16.589-31.822-28.45-54.045-28.299
		c-18.098,0.123-36.303-0.337-55.279,1.976c-2.598-10.951-7.801-19.996-16.236-16.626c-2.168,0.867,3.6,18.951,6.353,20.613
		c0.945,0.57,0.16,2.371,0.671,3.005c-30.408-4.016-64.368-6.209-96.535-5.388c-6.576-5.167-17.21-3.744-22.58,0.619
		c-13.217,0.465-24.625,0.681-38.004,2.217c-5.889-3.536-16.871-4.638-27.148-5.099c-18.427,0.22-36.688-0.549-55.28,2.308
		C37.66,26.65,26.07,36.55,17.098,52.599C7.29,70.135,5.416,91.714,5.416,111.662c-0.001,19.949,1.874,41.525,11.682,59.063
		c8.973,16.048,20.564,25.948,36.357,28.789c18.593,2.856,36.854,2.086,55.28,2.306c10.277-0.461,21.261-1.562,27.148-5.098
		c13.382,1.534,24.787,1.752,38.004,2.217c5.369,4.363,16.003,5.785,22.58,0.618c32.166,0.822,66.126-1.373,96.535-5.387
		c-0.511,0.633,0.274,2.435-0.672,3.005c-2.753,1.662-8.521,19.746-6.352,20.613c8.437,3.371,13.639-5.677,16.236-16.626
		c18.977,2.312,37.182,1.852,55.281,1.975c22.221,0.15,43.357-11.709,54.043-28.298
		C424.194,155.196,426.596,132.501,425.277,111.662z"/>
	<g style="display:inline;">
		<defs>
			<path id="SVGID_21_" d="M425.277,111.662c1.318-20.84-1.083-43.536-13.738-63.178c-10.687-16.588-31.822-28.449-54.045-28.298
				c-18.099,0.123-36.303-0.337-55.279,1.975c-2.598-10.95-7.801-19.996-16.236-16.625c-2.169,0.866,3.599,18.951,6.352,20.612
				c0.946,0.57,0.161,2.372,0.672,3.005c-30.408-4.015-64.369-6.208-96.535-5.387c-6.576-5.167-17.21-3.745-22.58,0.618
				c-13.217,0.466-24.625,0.682-38.004,2.218c-5.889-3.537-16.871-4.638-27.148-5.099c-18.427,0.22-36.688-0.55-55.28,2.307
				C37.66,26.649,26.07,36.55,17.098,52.598C7.29,70.135,5.416,91.713,5.416,111.662c-0.001,19.949,1.874,41.525,11.682,59.063
				c8.973,16.048,20.564,25.948,36.357,28.789c18.593,2.856,36.854,2.086,55.28,2.306c10.277-0.461,21.261-1.562,27.148-5.098
				c13.382,1.534,24.787,1.752,38.004,2.217c5.369,4.363,16.003,5.785,22.58,0.618c32.166,0.822,66.126-1.373,96.535-5.388
				c-0.511,0.633,0.274,2.435-0.672,3.006c-2.753,1.662-8.521,19.745-6.352,20.613c8.436,3.371,13.637-5.677,16.236-16.626
				c18.977,2.312,37.181,1.852,55.279,1.976c22.223,0.15,43.358-11.71,54.045-28.299
				C424.194,155.196,426.596,132.501,425.277,111.662z"/>
		</defs>
		<clipPath id="SVGID_22_">
			<use xlink:href="#SVGID_21_"  style="overflow:visible;"/>
		</clipPath>
		<g style="clip-path:url(#SVGID_22_);">
			<g>
				<defs>
					<rect id="SVGID_23_" x="0" y="-0.004" width="430" height="224.004"/>
				</defs>
				<clipPath id="SVGID_24_">
					<use xlink:href="#SVGID_23_"  style="overflow:visible;"/>
				</clipPath>
				<rect x="0" y="-0.004" style="clip-path:url(#SVGID_24_);fill:#FFFFFF;" width="430" height="224.004"/>
				<polygon style="clip-path:url(#SVGID_24_);fill:#27397C;" points="309.021,224 309.021,143.483 430,143.483 430,80.513 
					309.021,80.513 309.021,-0.004 238.507,-0.004 238.507,80.513 0,80.513 0,143.483 238.507,143.483 238.507,224 				"/>
			</g>
		</g>
	</g>
	<g style="display:inline;">
		<path style="fill-rule:evenodd;clip-rule:evenodd;" d="M92.094,34.957c76.754-10.44,144.761-12.968,219.803-3.619
			C240.975,44.268,167.404,43.964,92.094,34.957z"/>
		<path style="fill-rule:evenodd;clip-rule:evenodd;" d="M202.909,60.623l40.044,0.823c4.393,0.091,7.905,3.596,7.988,7.987
			c0.259,13.846,1.036,27.71,0.777,41.532c0.259,13.822-0.518,27.687-0.777,41.532c-0.083,4.392-3.595,7.897-7.987,7.987
			l-40.045,0.824c-4.393,0.09-7.987-3.594-7.987-7.988c0-28.236,0-56.474,0-84.71C194.922,64.217,198.517,60.533,202.909,60.623z"/>
		<path style="fill-rule:evenodd;clip-rule:evenodd;" d="M311.897,191.311c-76.753-10.441-144.759-12.969-219.804-3.621
			C163.017,200.621,236.587,200.317,311.897,191.311z"/>
		<path style="fill-rule:evenodd;clip-rule:evenodd;" d="M43.726,111.296c0.025-20.668,4.467-40.864,16.78-60.215
			c21.388-0.33,42.775-0.658,64.164-0.988c-4.832,17.398-6.364,38.956-7.239,61.203c0.875,22.247,2.407,43.805,7.241,61.202
			c-21.391-0.329-42.778-0.658-64.166-0.987C48.192,152.16,43.751,131.965,43.726,111.296z"/>
		
			<path style="fill-rule:evenodd;clip-rule:evenodd;fill:#282829;stroke:#414042;stroke-width:0.216;stroke-miterlimit:22.9256;" d="
			M67.552,50.973l57.118-0.88c-4.832,17.398-6.364,38.956-7.239,61.203c0.875,22.247,2.407,43.805,7.241,61.202l-53.424-0.822
			c-4.712-20.136-7.451-44.149-7.451-69.936C63.797,83.711,65.137,66.549,67.552,50.973z"/>
		<path style="fill-rule:evenodd;clip-rule:evenodd;" d="M274.798,111.296c-0.159-22.931-2.415-45.237-9.625-67.125
			c20.401-2.961,40.802-5.922,61.202-8.883c22.443,13.605,32.623,39.993,33.562,76.009c-0.939,36.017-11.119,62.404-33.562,76.01
			c-20.4-2.961-40.801-5.922-61.202-8.885C272.383,156.534,274.638,134.228,274.798,111.296z"/>
		
			<path style="fill-rule:evenodd;clip-rule:evenodd;fill:#282829;stroke:#414042;stroke-width:0.216;stroke-miterlimit:22.9256;" d="
			M274.798,111.296c-0.159-22.931-2.415-45.237-9.625-67.125l52.605-7.635c3.737,18.543,5.872,39.91,5.872,62.66
			c-0.001,33.056-4.5,63.198-11.892,85.989l-46.586-6.763C272.383,156.534,274.638,134.228,274.798,111.296z"/>
		
			<path style="fill-rule:evenodd;clip-rule:evenodd;fill:#414042;stroke:#414042;stroke-width:0.216;stroke-miterlimit:22.9256;" d="
			M385.773,31.321c2.23-0.868,8.514,4.01,14.033,10.89c5.52,6.881,8.186,13.162,5.956,14.028
			c-2.229,0.866-8.515-4.011-14.033-10.891C386.211,38.469,383.543,32.187,385.773,31.321L385.773,31.321z M405.763,166.354
			c-2.23-0.867-8.515,4.01-14.033,10.89c-5.519,6.88-8.187,13.162-5.956,14.028c2.23,0.866,8.514-4.011,14.033-10.891
			C405.326,173.501,407.992,167.219,405.763,166.354z"/>
		
			<path style="fill-rule:evenodd;clip-rule:evenodd;fill:#ED1C24;stroke:#ED1C24;stroke-width:0.216;stroke-miterlimit:22.9256;" d="
			M42.016,35.159c3.27,0,2.44,5.452-1.854,12.175c-4.294,6.722-10.429,12.174-13.698,12.174c-3.271,0-2.44-5.452,1.853-12.174
			C32.609,40.611,38.744,35.159,42.016,35.159L42.016,35.159z M26.463,163.084c-3.271,0-2.44,5.452,1.853,12.174
			c4.294,6.724,10.429,12.176,13.7,12.176c3.27,0,2.44-5.453-1.853-12.176C35.867,168.536,29.732,163.084,26.463,163.084z"/>
	</g>
</g>
<g id="Layer_9" style="display:none;">
	
		<path style="display:inline;fill-rule:evenodd;clip-rule:evenodd;fill:#FED23B;stroke:#000000;stroke-width:5.6693;stroke-miterlimit:22.9256;" d="
		M425.277,111.662c1.318-20.84-1.083-43.536-13.738-63.177c-10.687-16.589-31.822-28.45-54.045-28.299
		c-18.098,0.123-36.303-0.337-55.279,1.976c-2.598-10.951-7.801-19.996-16.236-16.626c-2.168,0.867,3.6,18.951,6.353,20.613
		c0.945,0.57,0.16,2.371,0.671,3.005c-30.408-4.016-64.368-6.209-96.535-5.388c-6.576-5.167-17.21-3.744-22.58,0.619
		c-13.217,0.465-24.625,0.681-38.004,2.217c-5.889-3.536-16.871-4.638-27.148-5.099c-18.427,0.22-36.688-0.549-55.28,2.308
		C37.66,26.65,26.07,36.55,17.098,52.599C7.29,70.135,5.416,91.714,5.416,111.662c-0.001,19.949,1.874,41.525,11.682,59.063
		c8.973,16.048,20.564,25.948,36.357,28.789c18.593,2.856,36.854,2.086,55.28,2.306c10.277-0.461,21.261-1.562,27.148-5.098
		c13.382,1.534,24.787,1.752,38.004,2.217c5.369,4.363,16.003,5.785,22.58,0.618c32.166,0.822,66.126-1.373,96.535-5.387
		c-0.511,0.633,0.274,2.435-0.672,3.005c-2.753,1.662-8.521,19.746-6.352,20.613c8.437,3.371,13.639-5.677,16.236-16.626
		c18.977,2.312,37.182,1.852,55.281,1.975c22.221,0.15,43.357-11.709,54.043-28.298
		C424.194,155.196,426.596,132.501,425.277,111.662z"/>
	<g style="display:inline;">
		<defs>
			<path id="SVGID_25_" d="M425.277,111.662c1.318-20.84-1.083-43.536-13.738-63.178c-10.687-16.588-31.822-28.449-54.045-28.298
				c-18.099,0.123-36.303-0.337-55.279,1.975c-2.598-10.95-7.801-19.996-16.236-16.625c-2.169,0.866,3.599,18.951,6.352,20.612
				c0.946,0.57,0.161,2.372,0.672,3.005c-30.408-4.015-64.369-6.208-96.535-5.387c-6.576-5.167-17.21-3.745-22.58,0.618
				c-13.217,0.466-24.625,0.682-38.004,2.218c-5.889-3.537-16.871-4.638-27.148-5.099c-18.427,0.22-36.688-0.55-55.28,2.307
				C37.66,26.649,26.07,36.55,17.098,52.598C7.29,70.135,5.416,91.713,5.416,111.662c-0.001,19.949,1.874,41.525,11.682,59.063
				c8.973,16.048,20.564,25.948,36.357,28.789c18.593,2.856,36.854,2.086,55.28,2.306c10.277-0.461,21.261-1.562,27.148-5.098
				c13.382,1.534,24.787,1.752,38.004,2.217c5.369,4.363,16.003,5.785,22.58,0.618c32.166,0.822,66.126-1.373,96.535-5.388
				c-0.511,0.633,0.274,2.435-0.672,3.006c-2.753,1.662-8.521,19.745-6.352,20.613c8.436,3.371,13.637-5.677,16.236-16.626
				c18.977,2.312,37.181,1.852,55.279,1.976c22.223,0.15,43.358-11.71,54.045-28.299
				C424.194,155.196,426.596,132.501,425.277,111.662z"/>
		</defs>
		<clipPath id="SVGID_26_">
			<use xlink:href="#SVGID_25_"  style="overflow:visible;"/>
		</clipPath>
		<g style="clip-path:url(#SVGID_26_);">
			<g>
				<defs>
					<rect id="SVGID_27_" x="0" y="-0.004" width="430" height="224"/>
				</defs>
				<clipPath id="SVGID_28_">
					<use xlink:href="#SVGID_27_"  style="overflow:visible;"/>
				</clipPath>
				<rect x="0" y="-0.004" style="clip-path:url(#SVGID_28_);fill:#2E5B96;" width="430" height="224"/>
				<rect x="254.421" y="-0.004" style="clip-path:url(#SVGID_28_);fill:#F4D130;" width="50.159" height="224"/>
				<rect x="0" y="89.6" style="clip-path:url(#SVGID_28_);fill:#F4D130;" width="430" height="44.793"/>
			</g>
		</g>
	</g>
	<g style="display:inline;">
		<path style="fill-rule:evenodd;clip-rule:evenodd;" d="M92.094,34.957c76.754-10.44,144.761-12.968,219.803-3.619
			C240.975,44.268,167.404,43.964,92.094,34.957z"/>
		<path style="fill-rule:evenodd;clip-rule:evenodd;" d="M202.909,60.623l40.044,0.823c4.393,0.091,7.905,3.596,7.988,7.987
			c0.259,13.846,1.036,27.71,0.777,41.532c0.259,13.822-0.518,27.687-0.777,41.532c-0.083,4.392-3.595,7.897-7.987,7.987
			l-40.045,0.824c-4.393,0.09-7.987-3.594-7.987-7.988c0-28.236,0-56.474,0-84.71C194.922,64.217,198.517,60.533,202.909,60.623z"/>
		<path style="fill-rule:evenodd;clip-rule:evenodd;" d="M311.897,191.311c-76.753-10.441-144.759-12.969-219.804-3.621
			C163.017,200.621,236.587,200.317,311.897,191.311z"/>
		<path style="fill-rule:evenodd;clip-rule:evenodd;" d="M43.726,111.296c0.025-20.668,4.467-40.864,16.78-60.215
			c21.388-0.33,42.775-0.658,64.164-0.988c-4.832,17.398-6.364,38.956-7.239,61.203c0.875,22.247,2.407,43.805,7.241,61.202
			c-21.391-0.329-42.778-0.658-64.166-0.987C48.192,152.16,43.751,131.965,43.726,111.296z"/>
		
			<path style="fill-rule:evenodd;clip-rule:evenodd;fill:#282829;stroke:#414042;stroke-width:0.216;stroke-miterlimit:22.9256;" d="
			M67.552,50.973l57.118-0.88c-4.832,17.398-6.364,38.956-7.239,61.203c0.875,22.247,2.407,43.805,7.241,61.202l-53.424-0.822
			c-4.712-20.136-7.451-44.149-7.451-69.936C63.797,83.711,65.137,66.549,67.552,50.973z"/>
		<path style="fill-rule:evenodd;clip-rule:evenodd;" d="M274.798,111.296c-0.159-22.931-2.415-45.237-9.625-67.125
			c20.401-2.961,40.802-5.922,61.202-8.883c22.443,13.605,32.623,39.993,33.562,76.009c-0.939,36.017-11.119,62.404-33.562,76.01
			c-20.4-2.961-40.801-5.922-61.202-8.885C272.383,156.534,274.638,134.228,274.798,111.296z"/>
		
			<path style="fill-rule:evenodd;clip-rule:evenodd;fill:#282829;stroke:#414042;stroke-width:0.216;stroke-miterlimit:22.9256;" d="
			M274.798,111.296c-0.159-22.931-2.415-45.237-9.625-67.125l52.605-7.635c3.737,18.543,5.872,39.91,5.872,62.66
			c-0.001,33.056-4.5,63.198-11.892,85.989l-46.586-6.763C272.383,156.534,274.638,134.228,274.798,111.296z"/>
		
			<path style="fill-rule:evenodd;clip-rule:evenodd;fill:#414042;stroke:#414042;stroke-width:0.216;stroke-miterlimit:22.9256;" d="
			M385.773,31.321c2.23-0.868,8.514,4.01,14.033,10.89c5.52,6.881,8.186,13.162,5.956,14.028
			c-2.229,0.866-8.515-4.011-14.033-10.891C386.211,38.469,383.543,32.187,385.773,31.321L385.773,31.321z M405.763,166.354
			c-2.23-0.867-8.515,4.01-14.033,10.89c-5.519,6.88-8.187,13.162-5.956,14.028c2.23,0.866,8.514-4.011,14.033-10.891
			C405.326,173.501,407.992,167.219,405.763,166.354z"/>
		
			<path style="fill-rule:evenodd;clip-rule:evenodd;fill:#ED1C24;stroke:#ED1C24;stroke-width:0.216;stroke-miterlimit:22.9256;" d="
			M42.016,35.159c3.27,0,2.44,5.452-1.854,12.175c-4.294,6.722-10.429,12.174-13.698,12.174c-3.271,0-2.44-5.452,1.853-12.174
			C32.609,40.611,38.744,35.159,42.016,35.159L42.016,35.159z M26.463,163.084c-3.271,0-2.44,5.452,1.853,12.174
			c4.294,6.724,10.429,12.176,13.7,12.176c3.27,0,2.44-5.453-1.853-12.176C35.867,168.536,29.732,163.084,26.463,163.084z"/>
	</g>
</g>
<g id="Layer_10">
	
		<path style="fill-rule:evenodd;clip-rule:evenodd;fill:#FED23B;stroke:#000000;stroke-width:5.6693;stroke-miterlimit:22.9256;" d="
		M425.277,111.662c1.318-20.84-1.083-43.536-13.738-63.177c-10.687-16.589-31.822-28.45-54.045-28.299
		c-18.098,0.123-36.303-0.337-55.279,1.976c-2.598-10.951-7.801-19.996-16.236-16.626c-2.168,0.867,3.6,18.951,6.353,20.613
		c0.945,0.57,0.16,2.371,0.671,3.005c-30.408-4.016-64.368-6.209-96.535-5.388c-6.576-5.167-17.21-3.744-22.58,0.619
		c-13.217,0.465-24.625,0.681-38.004,2.217c-5.889-3.536-16.871-4.638-27.148-5.099c-18.427,0.22-36.688-0.549-55.28,2.308
		C37.66,26.65,26.07,36.55,17.098,52.599C7.29,70.135,5.416,91.714,5.416,111.662c-0.001,19.949,1.874,41.525,11.682,59.063
		c8.973,16.048,20.564,25.948,36.357,28.789c18.593,2.856,36.854,2.086,55.28,2.306c10.277-0.461,21.261-1.562,27.148-5.098
		c13.382,1.534,24.787,1.752,38.004,2.217c5.369,4.363,16.003,5.785,22.58,0.618c32.166,0.822,66.126-1.373,96.535-5.387
		c-0.511,0.633,0.274,2.435-0.672,3.005c-2.753,1.662-8.521,19.746-6.352,20.613c8.437,3.371,13.639-5.677,16.236-16.626
		c18.977,2.312,37.182,1.852,55.281,1.975c22.221,0.15,43.357-11.709,54.043-28.298
		C424.194,155.196,426.596,132.501,425.277,111.662z"/>
	<g>
		<defs>
			<path id="SVGID_29_" d="M425.277,111.662c1.318-20.84-1.083-43.536-13.738-63.178c-10.687-16.588-31.822-28.449-54.045-28.298
				c-18.099,0.123-36.303-0.337-55.279,1.975c-2.598-10.95-7.801-19.996-16.236-16.625c-2.169,0.866,3.599,18.951,6.352,20.612
				c0.946,0.57,0.161,2.372,0.672,3.005c-30.408-4.015-64.369-6.208-96.535-5.387c-6.576-5.167-17.21-3.745-22.58,0.618
				c-13.217,0.466-24.625,0.682-38.004,2.218c-5.889-3.537-16.871-4.638-27.148-5.099c-18.427,0.22-36.688-0.55-55.28,2.307
				C37.66,26.649,26.07,36.55,17.098,52.598C7.29,70.135,5.416,91.713,5.416,111.662c-0.001,19.949,1.874,41.525,11.682,59.063
				c8.973,16.048,20.564,25.948,36.357,28.789c18.593,2.856,36.854,2.086,55.28,2.306c10.277-0.461,21.261-1.562,27.148-5.098
				c13.382,1.534,24.787,1.752,38.004,2.217c5.369,4.363,16.003,5.785,22.58,0.618c32.166,0.822,66.126-1.373,96.535-5.388
				c-0.511,0.633,0.274,2.435-0.672,3.006c-2.753,1.662-8.521,19.745-6.352,20.613c8.436,3.371,13.637-5.677,16.236-16.626
				c18.977,2.312,37.181,1.852,55.279,1.976c22.223,0.15,43.358-11.71,54.045-28.299
				C424.194,155.196,426.596,132.501,425.277,111.662z"/>
		</defs>
		<clipPath id="SVGID_30_">
			<use xlink:href="#SVGID_29_"  style="overflow:visible;"/>
		</clipPath>
		<g style="clip-path:url(#SVGID_30_);">
			<g>
				<defs>
					<rect id="SVGID_31_" x="2.135" y="1.285" width="427.866" height="222.711"/>
				</defs>
				<clipPath id="SVGID_32_">
					<use xlink:href="#SVGID_31_"  style="overflow:visible;"/>
				</clipPath>
				<rect x="287.375" y="1.285" style="clip-path:url(#SVGID_32_);fill:#324095;" width="142.625" height="222.711"/>
				<rect x="144.76" y="1.285" style="clip-path:url(#SVGID_32_);fill:#F4F4F4;" width="142.615" height="222.711"/>
				<rect x="2.135" y="1.285" style="clip-path:url(#SVGID_32_);fill:#D81E34;" width="142.625" height="222.711"/>
			</g>
		</g>
	</g>
	<g>
		<path style="fill-rule:evenodd;clip-rule:evenodd;" d="M92.094,34.957c76.754-10.44,144.761-12.968,219.803-3.619
			C240.975,44.268,167.404,43.964,92.094,34.957z"/>
		<path style="fill-rule:evenodd;clip-rule:evenodd;" d="M202.909,60.623l40.044,0.823c4.393,0.091,7.905,3.596,7.988,7.987
			c0.259,13.846,1.036,27.71,0.777,41.532c0.259,13.822-0.518,27.687-0.777,41.532c-0.083,4.392-3.595,7.897-7.987,7.987
			l-40.045,0.824c-4.393,0.09-7.987-3.594-7.987-7.988c0-28.236,0-56.474,0-84.71C194.922,64.217,198.517,60.533,202.909,60.623z"/>
		<path style="fill-rule:evenodd;clip-rule:evenodd;" d="M311.897,191.311c-76.753-10.441-144.759-12.969-219.804-3.621
			C163.017,200.621,236.587,200.317,311.897,191.311z"/>
		<path style="fill-rule:evenodd;clip-rule:evenodd;" d="M43.726,111.296c0.025-20.668,4.467-40.864,16.78-60.215
			c21.388-0.33,42.775-0.658,64.164-0.988c-4.832,17.398-6.364,38.956-7.239,61.203c0.875,22.247,2.407,43.805,7.241,61.202
			c-21.391-0.329-42.778-0.658-64.166-0.987C48.192,152.16,43.751,131.965,43.726,111.296z"/>
		
			<path style="fill-rule:evenodd;clip-rule:evenodd;fill:#282829;stroke:#414042;stroke-width:0.216;stroke-miterlimit:22.9256;" d="
			M67.552,50.973l57.118-0.88c-4.832,17.398-6.364,38.956-7.239,61.203c0.875,22.247,2.407,43.805,7.241,61.202l-53.424-0.822
			c-4.712-20.136-7.451-44.149-7.451-69.936C63.797,83.711,65.137,66.549,67.552,50.973z"/>
		<path style="fill-rule:evenodd;clip-rule:evenodd;" d="M274.798,111.296c-0.159-22.931-2.415-45.237-9.625-67.125
			c20.401-2.961,40.802-5.922,61.202-8.883c22.443,13.605,32.623,39.993,33.562,76.009c-0.939,36.017-11.119,62.404-33.562,76.01
			c-20.4-2.961-40.801-5.922-61.202-8.885C272.383,156.534,274.638,134.228,274.798,111.296z"/>
		
			<path style="fill-rule:evenodd;clip-rule:evenodd;fill:#282829;stroke:#414042;stroke-width:0.216;stroke-miterlimit:22.9256;" d="
			M274.798,111.296c-0.159-22.931-2.415-45.237-9.625-67.125l52.605-7.635c3.737,18.543,5.872,39.91,5.872,62.66
			c-0.001,33.056-4.5,63.198-11.892,85.989l-46.586-6.763C272.383,156.534,274.638,134.228,274.798,111.296z"/>
		
			<path style="fill-rule:evenodd;clip-rule:evenodd;fill:#414042;stroke:#414042;stroke-width:0.216;stroke-miterlimit:22.9256;" d="
			M385.773,31.321c2.23-0.868,8.514,4.01,14.033,10.89c5.52,6.881,8.186,13.162,5.956,14.028
			c-2.229,0.866-8.515-4.011-14.033-10.891C386.211,38.469,383.543,32.187,385.773,31.321L385.773,31.321z M405.763,166.354
			c-2.23-0.867-8.515,4.01-14.033,10.89c-5.519,6.88-8.187,13.162-5.956,14.028c2.23,0.866,8.514-4.011,14.033-10.891
			C405.326,173.501,407.992,167.219,405.763,166.354z"/>
		
			<path style="fill-rule:evenodd;clip-rule:evenodd;fill:#ED1C24;stroke:#ED1C24;stroke-width:0.216;stroke-miterlimit:22.9256;" d="
			M42.016,35.159c3.27,0,2.44,5.452-1.854,12.175c-4.294,6.722-10.429,12.174-13.698,12.174c-3.271,0-2.44-5.452,1.853-12.174
			C32.609,40.611,38.744,35.159,42.016,35.159L42.016,35.159z M26.463,163.084c-3.271,0-2.44,5.452,1.853,12.174
			c4.294,6.724,10.429,12.176,13.7,12.176c3.27,0,2.44-5.453-1.853-12.176C35.867,168.536,29.732,163.084,26.463,163.084z"/>
	</g>
</g>
</svg>
